<?xml version="1.0" encoding="UTF-8" standalone="no"?><!DOCTYPE svg PUBLIC "-//W3C//DTD SVG 1.1//EN" "http://www.w3.org/Graphics/SVG/1.1/DTD/svg11.dtd"><svg width="100%" height="100%" viewBox="0 0 48 48" version="1.1" xmlns="http://www.w3.org/2000/svg" xmlns:xlink="http://www.w3.org/1999/xlink" xml:space="preserve" xmlns:serif="http://www.serif.com/" style="fill-rule:evenodd;clip-rule:evenodd;stroke-linejoin:round;stroke-miterlimit:2;"><path d="M24.039,0.119c13.068,0 23.677,10.609 23.677,23.677c0,13.067 -10.609,23.677 -23.677,23.677c-13.067,0 -23.677,-10.61 -23.677,-23.677c0,-13.068 10.61,-23.677 23.677,-23.677Zm-1.064,32.513l3.375,-0.328c0.203,1.133 0.615,1.965 1.236,2.496c0.621,0.531 1.459,0.797 2.514,0.797c1.117,0 1.959,-0.236 2.525,-0.709c0.567,-0.473 0.85,-1.025 0.85,-1.658c0,-0.406 -0.119,-0.752 -0.358,-1.037c-0.238,-0.285 -0.654,-0.534 -1.248,-0.744c-0.406,-0.141 -1.332,-0.391 -2.777,-0.75c-1.859,-0.461 -3.164,-1.028 -3.914,-1.7c-1.055,-0.945 -1.582,-2.097 -1.582,-3.457c0,-0.875 0.248,-1.693 0.744,-2.455c0.496,-0.761 1.211,-1.342 2.145,-1.74c0.933,-0.398 2.06,-0.598 3.381,-0.598c2.156,0 3.779,0.473 4.869,1.418c1.09,0.946 1.662,2.207 1.716,3.785l-3.468,0.153c-0.149,-0.883 -0.467,-1.518 -0.955,-1.904c-0.489,-0.387 -1.221,-0.581 -2.198,-0.581c-1.007,0 -1.797,0.207 -2.367,0.622c-0.367,0.265 -0.551,0.621 -0.551,1.066c0,0.406 0.172,0.754 0.516,1.043c0.438,0.367 1.5,0.75 3.188,1.148c1.687,0.399 2.935,0.811 3.744,1.237c0.808,0.425 1.441,1.007 1.898,1.746c0.457,0.738 0.686,1.65 0.686,2.736c0,0.984 -0.274,1.906 -0.821,2.766c-0.547,0.859 -1.32,1.498 -2.32,1.916c-1,0.418 -2.246,0.627 -3.738,0.627c-2.172,0 -3.84,-0.502 -5.004,-1.506c-1.164,-1.004 -1.86,-2.467 -2.086,-4.389Zm-3.653,-2.776l6.153,-17.179l-3.68,0l-4.207,12.715l-4.348,-12.715l-3.761,0l6.14,17.179l3.703,0Z" style="fill:#e10600;fill-opacity:0.54;"/></svg>