<?xml version="1.0" encoding="UTF-8" standalone="no"?><!DOCTYPE svg PUBLIC "-//W3C//DTD SVG 1.1//EN" "http://www.w3.org/Graphics/SVG/1.1/DTD/svg11.dtd"><svg width="100%" height="100%" viewBox="0 0 48 48" version="1.1" xmlns="http://www.w3.org/2000/svg" xmlns:xlink="http://www.w3.org/1999/xlink" xml:space="preserve" xmlns:serif="http://www.serif.com/" style="fill-rule:evenodd;clip-rule:evenodd;stroke-linecap:round;stroke-linejoin:round;stroke-miterlimit:1.5;"><g opacity="0.54"><path d="M36.342,4.558l0.202,0.019l0.2,0.033l0.197,0.046l0.195,0.059l0.189,0.072l0.185,0.083l0.179,0.096l0.172,0.107l0.165,0.118l0.157,0.129l0.148,0.138l0.138,0.148l0.129,0.157l0.118,0.165l0.107,0.172l0.095,0.179l0.084,0.185l0.072,0.189l0.058,0.194l0.047,0.198l0.033,0.2l0.019,0.202l0.007,0.202l0,35.838l-0.007,0.203l-0.019,0.202l-0.033,0.2l-0.047,0.197l-0.058,0.194l-0.072,0.19l-0.084,0.185l-0.095,0.178l-0.107,0.173l-0.118,0.164l-0.129,0.157l-0.138,0.148l-0.148,0.139l-0.157,0.128l-0.165,0.118l-0.172,0.108l-0.179,0.095l-0.185,0.084l-0.189,0.071l-0.195,0.059l-0.197,0.046l-0.2,0.033l-0.202,0.02l-0.202,0.007l-24.454,0l-0.202,-0.007l-0.202,-0.02l-0.2,-0.033l-0.198,-0.046l-0.194,-0.059l-0.19,-0.071l-0.184,-0.084l-0.179,-0.095l-0.172,-0.108l-0.165,-0.118l-0.157,-0.128l-0.148,-0.139l-0.138,-0.148l-0.129,-0.157l-0.118,-0.164l-0.107,-0.173l-0.096,-0.178l-0.083,-0.185l-0.072,-0.19l-0.059,-0.194l-0.046,-0.197l-0.033,-0.2l-0.02,-0.202l-0.006,-0.203l0,-35.838l0.006,-0.202l0.02,-0.202l0.033,-0.2l0.046,-0.198l0.059,-0.194l0.072,-0.189l0.083,-0.185l0.096,-0.179l0.107,-0.172l0.118,-0.165l0.129,-0.157l0.138,-0.148l0.148,-0.138l0.157,-0.129l0.165,-0.118l0.172,-0.107l0.179,-0.096l0.184,-0.083l0.19,-0.072l0.194,-0.059l0.198,-0.046l0.2,-0.033l0.202,-0.019l0.202,-0.007l24.454,0l0.202,0.007Zm-24.656,3.091l0,35.838l24.454,0l0,-35.838l-24.454,0Z"/><rect x="11.686" y="7.649" width="24.453" height="35.838"/><rect x="11.686" y="7.649" width="24.453" height="35.838" style="fill:none;stroke:#000;stroke-width:3.1px;"/><rect x="11.686" y="7.649" width="24.453" height="35.838"/><path d="M14.939,9.973l0,-7.028" style="fill:none;stroke:#000;stroke-width:2.43px;"/><path d="M23.942,10.205l0,-7.028" style="fill:none;stroke:#000;stroke-width:2.43px;"/><path d="M32.945,10.379l0,-7.028" style="fill:none;stroke:#000;stroke-width:2.43px;"/></g><g><path d="M14.784,25l18.432,0" style="fill:none;stroke:#fff;stroke-width:2.43px;stroke-linecap:square;"/><path d="M24,34.216l0,-18.432" style="fill:none;stroke:#fff;stroke-width:2.43px;stroke-linecap:square;"/></g></svg>