<?xml version="1.0" encoding="UTF-8" standalone="no"?><!DOCTYPE svg PUBLIC "-//W3C//DTD SVG 1.1//EN" "http://www.w3.org/Graphics/SVG/1.1/DTD/svg11.dtd"><svg width="100%" height="100%" viewBox="0 0 48 48" version="1.1" xmlns="http://www.w3.org/2000/svg" xmlns:xlink="http://www.w3.org/1999/xlink" xml:space="preserve" xmlns:serif="http://www.serif.com/" style="fill-rule:evenodd;clip-rule:evenodd;stroke-linecap:round;stroke-linejoin:round;stroke-miterlimit:1.5;"><g opacity="0.54"><path d="M36.429,5.342l0.202,0.02l0.2,0.033l0.198,0.046l0.194,0.058l0.189,0.072l0.185,0.084l0.179,0.095l0.172,0.107l0.165,0.118l0.157,0.129l0.148,0.139l0.138,0.148l0.129,0.156l0.118,0.165l0.107,0.172l0.096,0.179l0.083,0.185l0.072,0.19l0.059,0.194l0.046,0.197l0.033,0.2l0.02,0.202l0.006,0.203l0,35.837l-0.006,0.203l-0.02,0.202l-0.033,0.2l-0.046,0.197l-0.059,0.194l-0.072,0.19l-0.083,0.185l-0.096,0.179l-0.107,0.172l-0.118,0.165l-0.129,0.156l-0.138,0.148l-0.148,0.139l-0.157,0.128l-0.165,0.119l-0.172,0.107l-0.179,0.095l-0.185,0.084l-0.189,0.071l-0.194,0.059l-0.198,0.046l-0.2,0.033l-0.202,0.02l-0.202,0.007l-24.454,0l-0.202,-0.007l-0.202,-0.02l-0.2,-0.033l-0.198,-0.046l-0.194,-0.059l-0.189,-0.071l-0.185,-0.084l-0.179,-0.095l-0.172,-0.107l-0.165,-0.119l-0.157,-0.128l-0.148,-0.139l-0.138,-0.148l-0.129,-0.156l-0.118,-0.165l-0.107,-0.172l-0.096,-0.179l-0.083,-0.185l-0.072,-0.19l-0.059,-0.194l-0.046,-0.197l-0.033,-0.2l-0.02,-0.202l-0.006,-0.203l0,-35.837l0.006,-0.203l0.02,-0.202l0.033,-0.2l0.046,-0.197l0.059,-0.194l0.072,-0.19l0.083,-0.185l0.096,-0.179l0.107,-0.172l0.118,-0.165l0.129,-0.156l0.138,-0.148l0.148,-0.139l0.157,-0.129l0.165,-0.118l0.172,-0.107l0.179,-0.095l0.185,-0.084l0.189,-0.072l0.194,-0.058l0.198,-0.046l0.2,-0.033l0.202,-0.02l0.202,-0.007l24.454,0l0.202,0.007Zm-24.656,3.092l0,35.837l24.454,0l0,-35.837l-24.454,0Z"/><rect x="11.773" y="8.434" width="24.453" height="35.838"/><rect x="11.773" y="8.434" width="24.453" height="35.838" style="fill:none;stroke:#000;stroke-width:3.1px;"/><rect x="11.773" y="8.434" width="24.453" height="35.838"/><path d="M15.026,10.757l0,-7.028" style="fill:none;stroke:#000;stroke-width:2.43px;"/><path d="M24.029,10.989l0,-7.028" style="fill:none;stroke:#000;stroke-width:2.43px;"/><path d="M33.032,11.163l0,-7.028" style="fill:none;stroke:#000;stroke-width:2.43px;"/></g><g><circle cx="21.29" cy="22.852" r="6.273" style="fill:none;stroke:#fff;stroke-width:0.81px;"/><path d="M25.265,27.703l1.638,1.639" style="fill:none;stroke:#fff;stroke-width:0.81px;"/><path d="M26.903,29.342l6.079,6.079" style="fill:none;stroke:#fff;stroke-width:2.37px;"/></g></svg>