<?xml version="1.0" encoding="UTF-8" standalone="no"?><!DOCTYPE svg PUBLIC "-//W3C//DTD SVG 1.1//EN" "http://www.w3.org/Graphics/SVG/1.1/DTD/svg11.dtd"><svg width="100%" height="100%" viewBox="0 0 48 48" version="1.1" xmlns="http://www.w3.org/2000/svg" xmlns:xlink="http://www.w3.org/1999/xlink" xml:space="preserve" xmlns:serif="http://www.serif.com/" style="fill-rule:evenodd;clip-rule:evenodd;stroke-linecap:round;stroke-linejoin:round;stroke-miterlimit:1.5;"><g><path d="M43.849,2.156l0.252,0.023l0.251,0.038l0.247,0.053l0.244,0.068l0.24,0.083l0.234,0.097l0.227,0.11l0.221,0.125l0.213,0.137l0.204,0.15l0.194,0.163l0.185,0.173l0.173,0.184l0.162,0.195l0.15,0.204l0.138,0.213l0.124,0.22l0.111,0.228l0.097,0.234l0.083,0.239l0.068,0.244l0.053,0.248l0.038,0.25l0.023,0.252l0.008,0.254l0,37.185l-0.008,0.254l-0.023,0.252l-0.038,0.25l-0.053,0.248l-0.068,0.244l-0.083,0.239l-0.097,0.234l-0.111,0.228l-0.124,0.22l-0.138,0.213l-0.15,0.204l-0.162,0.194l-0.173,0.185l-0.185,0.173l-0.194,0.163l-0.204,0.15l-0.213,0.137l-0.221,0.125l-0.227,0.11l-0.234,0.097l-0.24,0.083l-0.244,0.068l-0.247,0.053l-0.251,0.038l-0.252,0.023l-0.253,0.008l-39.314,0l-0.253,-0.008l-0.252,-0.023l-0.25,-0.038l-0.248,-0.053l-0.244,-0.068l-0.239,-0.083l-0.234,-0.097l-0.228,-0.11l-0.22,-0.125l-0.213,-0.137l-0.204,-0.15l-0.195,-0.163l-0.184,-0.173l-0.174,-0.185l-0.162,-0.194l-0.15,-0.204l-0.137,-0.213l-0.125,-0.22l-0.111,-0.228l-0.097,-0.234l-0.082,-0.239l-0.068,-0.244l-0.053,-0.248l-0.038,-0.25l-0.023,-0.252l-0.008,-0.254l0,-37.185l0.008,-0.254l0.023,-0.252l0.038,-0.25l0.053,-0.248l0.068,-0.244l0.082,-0.239l0.097,-0.234l0.111,-0.228l0.125,-0.22l0.137,-0.213l0.15,-0.204l0.162,-0.195l0.174,-0.184l0.184,-0.173l0.195,-0.163l0.204,-0.15l0.213,-0.137l0.22,-0.125l0.228,-0.11l0.234,-0.097l0.239,-0.083l0.244,-0.068l0.248,-0.053l0.25,-0.038l0.252,-0.023l0.253,-0.008l39.314,0l0.253,0.008Zm-39.567,4.185l0,37.185l39.314,0l0,-37.185l-39.314,0Z" style="fill:#fff;"/><rect x="4.282" y="6.341" width="39.314" height="37.186" style="fill:#fff;"/><rect x="4.282" y="6.341" width="39.314" height="37.186" style="fill:none;stroke:#fff;stroke-width:4.19px;"/><rect x="4.282" y="6.341" width="39.314" height="37.186" style="fill:#fff;"/><path d="M9.512,8.751l0,-7.292" style="fill:none;stroke:#fff;stroke-width:3.29px;"/><path d="M23.986,8.992l0,-7.292" style="fill:none;stroke:#fff;stroke-width:3.29px;"/><path d="M38.46,9.173l0,-7.292" style="fill:none;stroke:#fff;stroke-width:3.29px;"/></g></svg>