<?xml version="1.0" encoding="UTF-8" standalone="no"?><!DOCTYPE svg PUBLIC "-//W3C//DTD SVG 1.1//EN" "http://www.w3.org/Graphics/SVG/1.1/DTD/svg11.dtd"><svg width="100%" height="100%" viewBox="0 0 48 48" version="1.1" xmlns="http://www.w3.org/2000/svg" xmlns:xlink="http://www.w3.org/1999/xlink" xml:space="preserve" xmlns:serif="http://www.serif.com/" style="fill-rule:evenodd;clip-rule:evenodd;stroke-linejoin:round;stroke-miterlimit:2;"><path d="M32.011,13.398l-8.478,8.478l-22.085,0l0,-3.126l20.79,0l5.352,-5.352l-5.352,-5.352l-20.79,0l0,-3.126l22.085,0l8.478,8.478Z" style="fill-opacity:0.54;"/><path d="M31.895,34.028l-8.479,8.478l-22.084,0l0,-3.126l20.79,0l5.352,-5.352l-5.352,-5.353l-20.79,0l0,-3.126l22.084,0l8.479,8.479Z" style="fill-opacity:0.54;"/><path d="M40.047,21.446l0.616,0.617l5.855,0l0,3.126l-5.852,0l-8.766,8.815l-2.217,-2.204l8.126,-8.171l-8.005,-8.026l2.213,-2.207l8.03,8.05Z" style="fill-opacity:0.54;"/></svg>